<svg width="10" height="10" viewBox="0 0 10 10" fill="none" xmlns="http://www.w3.org/2000/svg">
	<path d="M1.73847 9.03077C1.63723 9.03136 1.53688 9.01195 1.44316 8.97367C1.34943 8.93539 1.26419 8.87899 1.19231 8.8077C1.04904 8.66357 0.968628 8.46861 0.968628 8.26539C0.968628 8.06217 1.04904 7.86721 1.19231 7.72308L7.72308 1.19231C7.7943 1.11857 7.87934 1.05958 7.97336 1.0187C8.06737 0.977826 8.16852 0.955868 8.27102 0.954083C8.37352 0.952297 8.47537 0.970717 8.57075 1.00829C8.66614 1.04587 8.75319 1.10186 8.82693 1.17308C8.90067 1.2443 8.95966 1.32934 9.00054 1.42336C9.04141 1.51737 9.06337 1.61852 9.06516 1.72102C9.06694 1.82352 9.04852 1.92537 9.01095 2.02075C8.97337 2.11614 8.91737 2.20318 8.84616 2.27693L2.27693 8.84616C2.12765 8.97428 1.93496 9.04035 1.73847 9.03077V9.03077Z" fill="white" />
	<path d="M8.26152 9.03078C8.05972 9.02993 7.86634 8.94982 7.72306 8.80771L1.19229 2.27694C1.06627 2.12978 1.00042 1.94049 1.0079 1.7469C1.01538 1.5533 1.09563 1.36965 1.23263 1.23266C1.36962 1.09566 1.55327 1.01541 1.74687 1.00793C1.94046 1.00045 2.12975 1.0663 2.27691 1.19232L8.84614 7.72309C8.92299 7.79504 8.98426 7.88201 9.02614 7.9786C9.06803 8.07519 9.08964 8.17935 9.08964 8.28463C9.08964 8.38991 9.06803 8.49407 9.02614 8.59066C8.98426 8.68725 8.92299 8.77421 8.84614 8.84617C8.76655 8.91537 8.67359 8.96747 8.57301 8.99923C8.47244 9.03099 8.36642 9.04173 8.26152 9.03078V9.03078Z" fill="white" />
</svg>
