<svg width="810" height="419" viewBox="0 0 810 419" fill="none" xmlns="http://www.w3.org/2000/svg">
<path d="M28.48 220.88L64.96 215.44L99.84 205.2L108.16 191.76L104.64 178L96.32 167.76C93.9733 166.267 91.52 164.88 88.96 163.6C86.6133 162.107 84.16 161.04 81.6 160.4C79.2533 159.547 76.8 159.227 74.24 159.44C71.8933 159.44 69.5467 160.187 67.2 161.68L59.2 167.44L32.64 154.96L23.04 130.32L31.36 89.04L46.08 69.52C46.72 71.0133 48 71.5467 49.92 71.12C51.84 70.6933 53.76 69.84 55.68 68.56C57.6 67.28 59.2 65.7867 60.48 64.08C61.76 62.16 62.08 60.4533 61.44 58.96C65.0667 57.8933 69.2267 56.8267 73.92 55.76C78.6133 54.48 82.6667 52.6667 86.08 50.32L127.36 41.68L134.08 41.04L139.84 47.76L134.72 61.52L122.88 64.72L107.52 66.32L84.16 78.16L73.28 92.24C69.8667 95.44 68.16 98.96 68.16 102.8C68.3733 106.427 69.3333 110.373 71.04 114.64C73.3867 119.547 75.0933 122.747 76.16 124.24C77.44 125.52 79.04 126.693 80.96 127.76L99.84 134.16C101.973 135.867 103.893 137.253 105.6 138.32C107.52 139.173 109.653 139.707 112 139.92C114.347 140.133 117.653 140.347 121.92 140.56C126.4 140.773 132.053 141.093 138.88 141.52C140.8 145.147 143.04 148.347 145.6 151.12C148.16 153.68 150.613 157.093 152.96 161.36L159.36 175.76L149.76 207.76L142.08 216.08L126.4 238.8H118.4C115.627 238.8 112.213 238.907 108.16 239.12C104.32 239.12 99.7333 239.12 94.4 239.12C89.0667 239.12 84.3733 239.653 80.32 240.72C76.2667 241.787 72.64 242.96 69.44 244.24C66.24 245.307 63.4667 246.267 61.12 247.12C58.7733 247.973 56.64 248.293 54.72 248.08L43.2 244.56L24 247.76L17.28 234L19.2 226L28.48 220.88ZM359.678 101.84C360.531 106.533 360.851 111.227 360.638 115.92C360.638 120.4 360.531 124.773 360.318 129.04C360.318 133.307 360.424 137.467 360.638 141.52C361.064 145.36 362.131 148.987 363.838 152.4C363.198 153.467 361.918 155.6 359.998 158.8C358.291 162 357.011 165.307 356.158 168.72C355.304 171.92 355.411 174.373 356.478 176.08C357.544 177.787 357.971 178.853 357.758 179.28C357.544 179.92 357.331 180.667 357.118 181.52C356.904 182.16 356.584 183.013 356.158 184.08C355.518 185.787 354.451 187.92 352.958 190.48C351.678 193.04 349.864 196.027 347.518 199.44C345.171 202.853 343.571 205.84 342.718 208.4C342.078 210.747 341.651 212.88 341.438 214.8C341.438 216.72 341.438 218.427 341.438 219.92C341.438 221.413 341.011 222.8 340.158 224.08C339.731 224.507 338.771 224.827 337.278 225.04C335.784 225.04 333.971 225.253 331.838 225.68C329.704 226.107 327.358 226.853 324.798 227.92C322.451 228.773 320.211 230.16 318.078 232.08C314.024 232.933 310.824 234.107 308.478 235.6C306.344 236.88 303.038 237.733 298.558 238.16C293.651 239.227 290.344 240.613 288.638 242.32C286.931 243.813 285.758 244.56 285.118 244.56C278.931 244.56 274.131 244.773 270.718 245.2C267.304 245.413 265.064 245.733 263.998 246.16L260.798 246.8C260.158 247.013 258.771 247.12 256.638 247.12L211.838 233.36L189.118 207.76C189.118 201.147 189.011 195.6 188.798 191.12C188.798 186.427 188.691 182.373 188.478 178.96C188.478 175.333 188.478 171.92 188.478 168.72C188.478 165.52 188.584 162 188.798 158.16C189.651 157.52 191.038 155.6 192.958 152.4C195.091 148.987 197.224 145.253 199.358 141.2C201.491 136.933 203.518 132.56 205.438 128.08C207.358 123.6 208.851 119.867 209.918 116.88C210.771 113.68 211.518 111.227 212.158 109.52C212.798 107.6 213.331 106 213.758 104.72C214.398 103.44 214.931 102.16 215.358 100.88C215.784 99.6 216.211 98 216.638 96.08L224.958 87.76C224.958 87.5467 226.131 86.0533 228.478 83.28C231.038 80.2933 233.918 77.0933 237.118 73.68C240.531 70.0533 244.051 66.7466 247.678 63.76C251.304 60.7733 254.291 59.1733 256.638 58.96L272.318 57.36L278.718 58C279.571 58.2133 280.318 58.32 280.958 58.32C281.811 58.32 282.558 58.32 283.198 58.32H285.438L296.318 68.24C296.531 70.5867 297.064 72.5067 297.918 74C298.984 75.4933 301.118 76.6667 304.318 77.52C307.731 78.3733 309.544 78.8 309.758 78.8C309.971 79.0133 309.971 79.2267 309.758 79.44C313.811 79.44 318.078 78.3733 322.558 76.24C327.038 73.8933 331.411 72.72 335.678 72.72C336.744 72.72 337.918 73.2533 339.198 74.32C340.478 75.3867 341.758 76.6667 343.038 78.16L346.878 82.32C348.158 83.8133 349.331 84.6667 350.398 84.88C349.971 88.9333 350.078 91.92 350.718 93.84C351.571 95.5467 352.531 96.8267 353.598 97.68C354.878 98.32 356.051 98.8533 357.118 99.28C358.398 99.7067 359.251 100.56 359.678 101.84ZM305.918 199.12C307.198 198.267 308.264 197.733 309.118 197.52C309.971 197.093 310.718 196.453 311.358 195.6C312.211 194.747 312.958 193.36 313.598 191.44C314.451 189.307 315.411 186.107 316.478 181.84C317.758 177.573 318.824 174.053 319.678 171.28C320.531 168.293 321.171 165.84 321.598 163.92C322.024 161.787 322.344 159.867 322.558 158.16C322.771 156.453 322.878 154.64 322.878 152.72C322.878 149.093 323.091 145.04 323.518 140.56C323.944 135.867 323.518 130.96 322.238 125.84C321.171 122.213 320.424 118.16 319.998 113.68C319.784 109.2 319.464 105.36 319.038 102.16C316.904 100.88 315.624 98.8533 315.198 96.08C314.771 93.3067 313.384 90.64 311.038 88.08C309.758 87.0133 308.371 86.3733 306.878 86.16C305.598 85.9467 304.318 85.9467 303.038 86.16C301.971 86.3733 300.904 86.6933 299.838 87.12C298.984 87.5467 298.344 87.76 297.918 87.76C297.278 87.76 295.998 87.6533 294.078 87.44C292.158 87.0133 289.918 86.9067 287.358 87.12C285.011 87.12 282.558 87.5467 279.998 88.4C277.651 89.04 275.731 90.4267 274.238 92.56C267.624 100.027 263.784 104.72 262.718 106.64C259.731 112.187 257.064 117.52 254.718 122.64C252.584 127.76 250.664 131.6 248.958 134.16C248.104 136.293 246.291 139.493 243.518 143.76C240.958 148.027 239.678 154.107 239.678 162C239.891 162.64 239.571 164.24 238.718 166.8C237.864 169.147 237.011 172.027 236.158 175.44C235.518 178.853 234.984 182.373 234.558 186C234.131 189.413 234.451 192.507 235.518 195.28C236.371 197.413 238.184 200.827 240.958 205.52C243.731 210 248.531 214.8 255.358 219.92C259.624 222.693 262.504 225.573 263.998 228.56C265.491 231.333 266.771 232.72 267.838 232.72C268.904 232.72 270.611 232.72 272.958 232.72C275.304 232.507 277.011 232.933 278.078 234L305.918 199.12ZM404.648 237.2C404.861 236.133 404.968 235.173 404.968 234.32C405.181 233.253 405.394 232.187 405.608 231.12C406.888 222.16 407.528 216.08 407.528 212.88C407.528 212.24 407.314 211.173 406.888 209.68C406.674 208.187 406.461 207.12 406.248 206.48L409.128 135.12C408.061 133.627 407.848 131.707 408.488 129.36C409.128 126.8 410.088 125.2 411.368 124.56C412.221 121.573 413.394 118.16 414.888 114.32C416.594 110.48 417.234 106.107 416.808 101.2C416.594 98.8533 416.808 96.9333 417.448 95.44C418.088 93.7333 418.621 92.6667 419.048 92.24L421.608 89.68C423.314 87.9733 424.274 86.48 424.488 85.2C424.701 83.7067 424.488 82.32 423.848 81.04C423.208 79.76 422.354 78.8 421.288 78.16C420.434 77.3067 419.581 76.6667 418.728 76.24C418.088 75.6 417.768 75.1733 417.768 74.96C418.194 73.68 418.408 72.6133 418.408 71.76C418.408 70.9067 417.768 69.9467 416.488 68.88L417.128 61.2C418.194 59.7067 420.114 58.96 422.888 58.96C425.874 58.7467 428.221 58.64 429.928 58.64C430.568 58.64 431.634 58.64 433.128 58.64C434.621 58.4267 436.328 58.32 438.248 58.32L444.008 58C445.074 57.7867 445.928 57.68 446.568 57.68C447.421 57.68 448.168 57.68 448.808 57.68L452.328 56.08C453.821 55.2267 454.994 54.8 455.848 54.8C456.488 54.8 457.661 55.12 459.368 55.76C461.288 56.1867 463.314 57.04 465.448 58.32L463.848 89.36L460.648 116.56C460.648 117.413 460.114 119.227 459.048 122C457.981 124.56 456.914 126.693 455.848 128.4C455.421 128.827 455.208 129.68 455.208 130.96C455.208 132.027 455.208 133.307 455.208 134.8C455.421 136.08 455.528 137.36 455.528 138.64C455.741 139.92 455.741 140.88 455.528 141.52L453.288 164.88C453.288 165.307 453.074 165.733 452.648 166.16C452.434 166.373 452.114 167.12 451.688 168.4C451.474 169.467 451.154 171.067 450.728 173.2C450.301 175.333 449.981 178.32 449.768 182.16C449.341 190.267 448.914 195.92 448.488 199.12C448.061 202.32 447.848 204.133 447.848 204.56C447.848 206.693 448.488 208.187 449.768 209.04C451.261 209.893 452.008 211.173 452.008 212.88C451.154 213.733 451.368 215.333 452.648 217.68C454.141 220.027 456.701 221.52 460.328 222.16C463.954 222.8 468.008 222.587 472.488 221.52C476.968 220.24 481.874 219.387 487.208 218.96C489.128 218.96 490.301 219.173 490.728 219.6C491.368 220.027 491.901 220.56 492.328 221.2C492.968 221.627 493.928 222.16 495.208 222.8C496.701 223.227 499.368 223.547 503.208 223.76C504.061 223.76 505.661 223.12 508.008 221.84C510.568 220.56 511.634 218.533 511.208 215.76C512.914 215.76 515.048 215.44 517.608 214.8C520.381 214.16 523.154 213.627 525.928 213.2C528.701 212.773 531.154 212.773 533.288 213.2C535.421 213.413 536.808 214.48 537.448 216.4L538.728 221.2C538.514 221.627 538.408 222.16 538.408 222.8C538.408 223.227 538.301 223.76 538.088 224.4C537.874 225.467 537.554 226.96 537.128 228.88C536.701 230.587 536.274 232.613 535.848 234.96C531.368 235.387 528.914 235.493 528.488 235.28C528.061 235.067 527.634 234.96 527.208 234.96C526.568 234.96 525.501 235.387 524.008 236.24C522.728 236.88 521.661 237.413 520.808 237.84C519.528 238.053 517.394 238.373 514.408 238.8C511.634 239.227 508.114 239.653 503.848 240.08C501.501 240.507 499.474 240.827 497.768 241.04C496.274 241.04 494.994 241.147 493.928 241.36C493.074 241.573 492.008 241.68 490.728 241.68C490.514 241.68 489.768 241.787 488.488 242C487.208 242 485.714 242 484.008 242H474.408C470.141 241.573 467.048 241.253 465.128 241.04C463.421 240.827 462.034 240.827 460.968 241.04C460.114 241.04 459.261 241.36 458.408 242C457.768 242.427 456.274 243.28 453.928 244.56C453.074 244.773 451.474 244.88 449.128 244.88H435.368C433.661 244.667 432.274 244.56 431.208 244.56C430.354 244.347 429.394 244.133 428.328 243.92L415.848 247.76C412.861 247.333 410.514 246.053 408.808 243.92C407.101 241.787 405.714 239.547 404.648 237.2ZM725.928 101.84C726.781 106.533 727.101 111.227 726.888 115.92C726.888 120.4 726.781 124.773 726.568 129.04C726.568 133.307 726.674 137.467 726.888 141.52C727.314 145.36 728.381 148.987 730.088 152.4C729.448 153.467 728.168 155.6 726.248 158.8C724.541 162 723.261 165.307 722.408 168.72C721.554 171.92 721.661 174.373 722.728 176.08C723.794 177.787 724.221 178.853 724.008 179.28C723.794 179.92 723.581 180.667 723.368 181.52C723.154 182.16 722.834 183.013 722.408 184.08C721.768 185.787 720.701 187.92 719.208 190.48C717.928 193.04 716.114 196.027 713.768 199.44C711.421 202.853 709.821 205.84 708.968 208.4C708.328 210.747 707.901 212.88 707.688 214.8C707.688 216.72 707.688 218.427 707.688 219.92C707.688 221.413 707.261 222.8 706.408 224.08C705.981 224.507 705.021 224.827 703.528 225.04C702.034 225.04 700.221 225.253 698.088 225.68C695.954 226.107 693.608 226.853 691.048 227.92C688.701 228.773 686.461 230.16 684.328 232.08C680.274 232.933 677.074 234.107 674.728 235.6C672.594 236.88 669.288 237.733 664.808 238.16C659.901 239.227 656.594 240.613 654.888 242.32C653.181 243.813 652.008 244.56 651.368 244.56C645.181 244.56 640.381 244.773 636.968 245.2C633.554 245.413 631.314 245.733 630.248 246.16L627.048 246.8C626.408 247.013 625.021 247.12 622.888 247.12L578.088 233.36L555.368 207.76C555.368 201.147 555.261 195.6 555.048 191.12C555.048 186.427 554.941 182.373 554.728 178.96C554.728 175.333 554.728 171.92 554.728 168.72C554.728 165.52 554.834 162 555.048 158.16C555.901 157.52 557.288 155.6 559.208 152.4C561.341 148.987 563.474 145.253 565.608 141.2C567.741 136.933 569.768 132.56 571.688 128.08C573.608 123.6 575.101 119.867 576.168 116.88C577.021 113.68 577.768 111.227 578.408 109.52C579.048 107.6 579.581 106 580.008 104.72C580.648 103.44 581.181 102.16 581.608 100.88C582.034 99.6 582.461 98 582.888 96.08L591.208 87.76C591.208 87.5467 592.381 86.0533 594.728 83.28C597.288 80.2933 600.168 77.0933 603.368 73.68C606.781 70.0533 610.301 66.7466 613.928 63.76C617.554 60.7733 620.541 59.1733 622.888 58.96L638.568 57.36L644.968 58C645.821 58.2133 646.568 58.32 647.208 58.32C648.061 58.32 648.808 58.32 649.448 58.32H651.688L662.568 68.24C662.781 70.5867 663.314 72.5067 664.168 74C665.234 75.4933 667.368 76.6667 670.568 77.52C673.981 78.3733 675.794 78.8 676.008 78.8C676.221 79.0133 676.221 79.2267 676.008 79.44C680.061 79.44 684.328 78.3733 688.808 76.24C693.288 73.8933 697.661 72.72 701.928 72.72C702.994 72.72 704.168 73.2533 705.448 74.32C706.728 75.3867 708.008 76.6667 709.288 78.16L713.128 82.32C714.408 83.8133 715.581 84.6667 716.648 84.88C716.221 88.9333 716.328 91.92 716.968 93.84C717.821 95.5467 718.781 96.8267 719.848 97.68C721.128 98.32 722.301 98.8533 723.368 99.28C724.648 99.7067 725.501 100.56 725.928 101.84ZM672.168 199.12C673.448 198.267 674.514 197.733 675.368 197.52C676.221 197.093 676.968 196.453 677.608 195.6C678.461 194.747 679.208 193.36 679.848 191.44C680.701 189.307 681.661 186.107 682.728 181.84C684.008 177.573 685.074 174.053 685.928 171.28C686.781 168.293 687.421 165.84 687.848 163.92C688.274 161.787 688.594 159.867 688.808 158.16C689.021 156.453 689.128 154.64 689.128 152.72C689.128 149.093 689.341 145.04 689.768 140.56C690.194 135.867 689.768 130.96 688.488 125.84C687.421 122.213 686.674 118.16 686.248 113.68C686.034 109.2 685.714 105.36 685.288 102.16C683.154 100.88 681.874 98.8533 681.448 96.08C681.021 93.3067 679.634 90.64 677.288 88.08C676.008 87.0133 674.621 86.3733 673.128 86.16C671.848 85.9467 670.568 85.9467 669.288 86.16C668.221 86.3733 667.154 86.6933 666.088 87.12C665.234 87.5467 664.594 87.76 664.168 87.76C663.528 87.76 662.248 87.6533 660.328 87.44C658.408 87.0133 656.168 86.9067 653.608 87.12C651.261 87.12 648.808 87.5467 646.248 88.4C643.901 89.04 641.981 90.4267 640.488 92.56C633.874 100.027 630.034 104.72 628.968 106.64C625.981 112.187 623.314 117.52 620.968 122.64C618.834 127.76 616.914 131.6 615.208 134.16C614.354 136.293 612.541 139.493 609.768 143.76C607.208 148.027 605.928 154.107 605.928 162C606.141 162.64 605.821 164.24 604.968 166.8C604.114 169.147 603.261 172.027 602.408 175.44C601.768 178.853 601.234 182.373 600.808 186C600.381 189.413 600.701 192.507 601.768 195.28C602.621 197.413 604.434 200.827 607.208 205.52C609.981 210 614.781 214.8 621.608 219.92C625.874 222.693 628.754 225.573 630.248 228.56C631.741 231.333 633.021 232.72 634.088 232.72C635.154 232.72 636.861 232.72 639.208 232.72C641.554 232.507 643.261 232.933 644.328 234L672.168 199.12Z" fill="white"/>
<path d="M414.92 287.32C414.92 287.853 414.867 288.227 414.76 288.44C414.76 288.653 414.707 288.867 414.6 289.08C414.813 289.613 414.92 290.093 414.92 290.52C414.92 290.84 414.867 291.16 414.76 291.48C414.76 291.8 414.76 292.227 414.76 292.76C414.76 293.187 414.867 293.773 415.08 294.52C415.613 296.013 416.147 297.027 416.68 297.56C417.213 297.987 417.853 298.467 418.6 299C417.533 299.96 417 300.813 417 301.56C417 302.2 417.213 302.733 417.64 303.16C418.067 303.587 418.707 303.96 419.56 304.28C419.773 304.493 420.253 304.92 421 305.56C421.747 306.093 422.493 306.253 423.24 306.04L433.8 323.32L452.04 346.68C453.32 346.787 454.013 346.093 454.12 344.6C454.333 343 454.28 341.293 453.96 339.48C453.747 337.56 453.427 335.853 453 334.36C452.573 332.867 452.36 332.227 452.36 332.44C452.04 329.347 451.72 326.947 451.4 325.24C451.08 323.533 451.187 321.667 451.72 319.64C452.253 319.107 452.36 318.04 452.04 316.44C451.72 314.733 451.293 313.027 450.76 311.32C450.547 310.36 450.44 309.293 450.44 308.12C450.44 306.947 450.493 305.773 450.6 304.6C450.707 303.427 450.76 302.36 450.76 301.4C450.867 300.44 450.867 299.693 450.76 299.16C450.76 298.093 450.653 297.08 450.44 296.12C450.227 295.16 450.28 294.253 450.6 293.4C450.707 292.973 450.76 292.707 450.76 292.6C450.867 292.387 450.92 292.173 450.92 291.96C450.92 291.747 450.867 291.427 450.76 291C450.76 290.573 450.76 289.933 450.76 289.08L453 286.84C453.32 286.413 453.853 286.093 454.6 285.88C455.347 285.667 456.093 285.56 456.84 285.56C457.693 285.453 458.44 285.4 459.08 285.4C459.827 285.4 460.36 285.453 460.68 285.56C461.427 285.773 462.28 285.933 463.24 286.04C464.307 286.04 465.213 285.987 465.96 285.88L468.84 286.68L470.6 294.52C469.107 296.12 468.253 297.667 468.04 299.16C467.827 300.653 467.773 302.147 467.88 303.64C467.88 306.2 467.933 308.12 468.04 309.4C468.253 310.573 468.467 311.427 468.68 311.96C469 312.493 469.267 312.813 469.48 312.92C469.8 313.027 470.067 313.187 470.28 313.4C470.067 314.253 469.693 315.107 469.16 315.96C468.733 316.707 468.2 317.507 467.56 318.36C467.24 318.787 467.08 319.32 467.08 319.96C467.187 320.493 467.4 321.027 467.72 321.56C468.04 322.093 468.413 322.573 468.84 323C469.267 323.32 469.693 323.427 470.12 323.32C470.333 323.64 470.333 324.547 470.12 326.04C469.907 327.427 470.12 330.36 470.76 334.84C470.973 337.08 470.92 339 470.6 340.6C470.387 342.093 470.12 343.427 469.8 344.6C469.48 345.667 469.16 346.68 468.84 347.64C468.627 348.493 468.573 349.4 468.68 350.36C468.787 350.36 468.893 350.84 469 351.8C469.107 352.76 469.213 353.827 469.32 355C469.427 356.067 469.533 357.08 469.64 358.04C469.853 358.893 470.067 359.267 470.28 359.16C470.067 363 470.12 366.36 470.44 369.24C470.867 372.12 470.92 373.72 470.6 374.04L471.24 376.12L464.68 378.52C464.04 378.52 463.4 378.52 462.76 378.52C462.12 378.52 461.533 378.573 461 378.68C459.933 378.787 458.867 378.893 457.8 379C456.733 379.107 455.88 379.213 455.24 379.32L452.04 377.56C452.147 376.493 452.36 375.747 452.68 375.32C453.427 374.893 453.693 373.293 453.48 370.52C453.373 369.56 453.107 368.973 452.68 368.76C452.36 368.547 452.04 368.173 451.72 367.64L429.16 337.56C428.84 337.24 428.573 336.92 428.36 336.6C427.933 336.067 427.507 335.107 427.08 333.72C426.653 332.333 426.013 330.893 425.16 329.4C424.413 327.8 423.133 326.413 421.32 325.24L420.36 316.28C420.04 314.68 418.333 314.307 415.24 315.16C414.707 315.587 414.387 316.013 414.28 316.44C414.173 316.867 414.12 317.293 414.12 317.72C414.227 318.147 414.333 318.573 414.44 319C414.547 319.427 414.547 319.8 414.44 320.12C414.333 320.547 414.227 320.92 414.12 321.24C414.013 321.453 413.907 321.827 413.8 322.36C413.8 322.893 413.747 323.693 413.64 324.76C413.533 325.72 413.427 327.16 413.32 329.08C413.213 331 413.053 332.973 412.84 335C412.733 336.92 412.627 338.787 412.52 340.6C412.52 342.307 412.627 343.8 412.84 345.08C413.16 346.36 413.64 347.213 414.28 347.64C414.28 348.92 413.8 354.2 412.84 363.48C412.52 366.893 412.253 369.773 412.04 372.12C411.933 374.36 411.827 376.173 411.72 377.56L409.64 380.12C408.253 380.333 406.44 380.547 404.2 380.76C402.067 380.973 399.88 381.187 397.64 381.4C395.507 381.613 393.48 381.773 391.56 381.88C389.747 381.987 388.467 382.04 387.72 382.04C387.08 382.04 386.387 381.827 385.64 381.4C384.893 380.973 384.253 380.173 383.72 379C384.36 378.147 384.733 377.773 384.84 377.88C384.947 377.88 384.787 377.88 384.36 377.88V360.28L386.44 356.76L384.04 350.84L384.36 346.36C384.36 345.827 384.467 344.973 384.68 343.8C384.893 342.52 385.107 341.133 385.32 339.64C385.533 338.147 385.693 336.653 385.8 335.16C386.013 333.56 386.067 332.12 385.96 330.84C385.747 328.387 385.587 326.52 385.48 325.24C385.373 323.853 385.32 323.053 385.32 322.84C385.32 322.413 385.587 321.667 386.12 320.6C386.76 319.427 387.293 318.467 387.72 317.72C388.04 317.187 388.147 316.653 388.04 316.12C387.933 315.48 387.933 314.947 388.04 314.52C388.253 314.093 388.52 313.773 388.84 313.56C389.16 313.24 389.213 313.347 389 313.88C389.64 314.2 389.747 313.4 389.32 311.48C389 309.56 388.787 307.213 388.68 304.44L388.52 295.96C388.413 295.427 388.307 294.947 388.2 294.52C388.2 294.093 387.933 293.453 387.4 292.6C388.893 291.853 389.747 291.16 389.96 290.52C390.173 289.88 390.28 288.92 390.28 287.64C391.133 287.32 392.467 287.107 394.28 287C396.2 286.787 398.227 286.627 400.36 286.52C402.493 286.307 404.573 286.093 406.6 285.88C408.627 285.56 410.28 285.187 411.56 284.76L414.92 287.32ZM576.336 378.36L570.736 379.32C569.456 379.533 568.123 379.533 566.736 379.32C565.35 379.107 563.91 379 562.416 379C562.096 379 561.616 379 560.976 379C560.336 379 559.59 379 558.736 379C557.99 379 557.243 379.053 556.496 379.16C555.75 379.16 555.11 379.16 554.576 379.16L551.056 376.76C551.376 374.627 551.27 373.08 550.736 372.12C550.31 371.16 549.99 370.253 549.776 369.4C549.563 368.76 549.136 367.747 548.496 366.36C547.856 364.973 547.27 363.373 546.736 361.56C546.736 361.24 546.203 360.28 545.136 358.68C544.07 357.08 543.216 355.64 542.576 354.36L540.656 355.16C540.123 355.16 539.536 355.32 538.896 355.64C538.256 355.96 536.656 356.12 534.096 356.12C533.776 355.48 533.243 355.053 532.496 354.84C531.75 354.52 530.896 354.467 529.936 354.68C529.083 354.787 528.176 355.107 527.216 355.64C526.363 356.173 525.616 356.813 524.976 357.56L518.416 358.52C517.99 357.56 517.51 356.813 516.976 356.28C516.55 355.64 516.07 355.053 515.536 354.52C515.11 353.987 514.736 353.4 514.416 352.76C514.096 352.12 513.936 351.267 513.936 350.2C516.07 349.667 517.296 348.973 517.616 348.12C518.043 347.267 518.363 346.893 518.576 347C519.216 347.32 519.803 347.48 520.336 347.48C519.59 347.48 519.376 347.373 519.696 347.16C520.016 346.947 521.456 346.413 524.016 345.56L535.696 344.12L538.096 345.88C539.803 346.307 541.083 346.413 541.936 346.2C542.79 345.987 543.376 345.613 543.696 345.08C544.016 344.44 544.176 343.747 544.176 343C544.283 342.253 544.39 341.613 544.496 341.08C544.71 339.907 544.443 338.947 543.696 338.2C543.056 337.347 542.15 336.6 540.976 335.96C540.763 334.787 540.336 333.453 539.696 331.96C539.163 330.36 538.47 328.493 537.616 326.36C536.87 324.333 536.176 322.2 535.536 319.96C535.003 317.613 534.523 315.48 534.096 313.56C533.67 311.64 533.35 310.04 533.136 308.76C532.923 307.48 532.763 306.733 532.656 306.52C531.163 305.56 529.936 305.507 528.976 306.36C528.016 307.107 527.216 308.227 526.576 309.72C526.043 311.213 525.67 312.813 525.456 314.52C525.35 316.12 525.35 317.24 525.456 317.88C525.35 318.093 525.083 318.467 524.656 319C524.23 319.427 523.75 319.907 523.216 320.44C522.683 320.973 522.203 321.507 521.776 322.04C521.35 322.467 521.083 322.787 520.976 323C520.55 323.747 520.443 324.547 520.656 325.4C520.87 326.253 520.71 327 520.176 327.64C518.043 331.48 515.536 334.52 512.656 336.76C511.91 337.4 511.323 338.307 510.896 339.48C510.47 340.653 510.203 341.88 510.096 343.16C509.99 344.44 510.096 345.72 510.416 347C510.736 348.173 511.323 349.133 512.176 349.88C511.11 350.52 510.256 351.213 509.616 351.96C509.083 352.6 508.603 353.347 508.176 354.2C507.856 354.947 507.536 355.8 507.216 356.76C506.896 357.613 506.523 358.573 506.096 359.64C504.283 364.44 503.376 366.947 503.376 367.16L501.136 371.8L499.056 380.28C499.163 381.88 498.576 382.84 497.296 383.16C496.123 383.48 494.203 383.64 491.536 383.64C488.976 384.28 486.736 384.6 484.816 384.6C482.896 384.493 482.256 383.48 482.896 381.56C485.67 374.947 487.696 370.04 488.976 366.84C490.363 363.533 491.056 361.027 491.056 359.32C491.056 358.787 491.27 358.36 491.696 358.04C492.23 357.613 492.656 357.293 492.976 357.08C493.083 356.867 493.456 355.747 494.096 353.72C494.843 351.693 495.643 349.453 496.496 347C497.35 344.44 498.15 342.04 498.896 339.8C499.75 337.453 500.39 335.853 500.816 335C501.776 332.973 502.896 330.68 504.176 328.12C505.563 325.56 507.163 323.107 508.976 320.76C509.936 319.48 510.736 317.72 511.376 315.48C512.123 313.24 512.816 310.787 513.456 308.12C514.096 305.453 514.79 302.733 515.536 299.96C516.283 297.187 517.243 294.627 518.416 292.28C519.056 292.067 520.923 289.72 524.016 285.24C524.23 285.027 524.39 284.813 524.496 284.6C524.71 284.28 524.923 284.013 525.136 283.8L545.616 282.52C546.043 283.053 546.523 283.693 547.056 284.44C547.59 285.187 548.176 285.987 548.816 286.84C550.843 289.4 552.07 291.427 552.496 292.92C552.923 294.413 553.19 295.427 553.296 295.96C553.083 296.28 554.203 299.907 556.656 306.84C557.296 308.547 557.83 310.467 558.256 312.6C558.683 314.733 559.003 316.76 559.216 318.68C559.43 320.493 559.536 322.093 559.536 323.48C559.536 324.76 559.483 325.453 559.376 325.56C559.163 325.667 560.87 327 564.496 329.56C565.35 330.2 565.83 330.787 565.936 331.32C566.15 331.853 566.15 332.333 565.936 332.76C565.83 333.187 565.616 333.56 565.296 333.88C564.976 334.2 564.816 334.413 564.816 334.52L569.136 340.28C569.136 340.28 570.363 344.92 572.816 354.2C574.203 358.68 575.216 362.52 575.856 365.72C576.496 368.813 576.816 371.213 576.816 372.92C576.816 373.133 576.87 373.293 576.976 373.4C576.976 373.293 577.083 373.56 577.296 374.2L576.336 378.36ZM632.901 282.04V294.52C631.621 299.533 630.555 303.96 629.701 307.8C628.955 311.533 628.368 315 627.941 318.2C627.515 321.4 627.248 324.44 627.141 327.32C627.141 330.2 627.248 333.24 627.461 336.44C627.675 340.28 627.568 343.747 627.141 346.84C626.715 349.933 626.288 352.76 625.861 355.32C625.541 357.88 625.328 360.333 625.221 362.68C625.115 364.92 625.435 367.213 626.181 369.56L626.981 373.56L624.261 378.2L602.981 382.36L597.221 378.68C597.328 378.253 597.915 377.667 598.981 376.92C600.155 376.067 600.741 375.213 600.741 374.36C600.741 373.08 600.741 372.173 600.741 371.64C600.741 371.107 600.635 370.253 600.421 369.08C600.208 368.547 600.475 366.84 601.221 363.96C602.075 360.973 602.448 356.92 602.341 351.8C602.341 349.24 602.341 347.373 602.341 346.2C602.448 344.92 602.501 344.12 602.501 343.8C602.608 343.373 602.608 343.213 602.501 343.32C602.501 343.427 602.395 343.48 602.181 343.48C602.288 342.627 602.448 341.667 602.661 340.6C602.875 339.427 603.088 338.253 603.301 337.08C603.515 336.44 603.675 335.8 603.781 335.16C603.888 334.52 603.995 333.827 604.101 333.08C604.421 332.76 604.368 332.12 603.941 331.16C603.621 330.2 603.248 329.453 602.821 328.92C602.501 328.387 602.341 328.173 602.341 328.28C602.341 328.28 602.448 328.28 602.661 328.28C602.875 328.28 603.195 328.067 603.621 327.64C604.048 327.107 604.475 326.093 604.901 324.6L603.781 317.56C603.995 317.56 604.155 317.613 604.261 317.72C604.475 317.827 604.581 317.773 604.581 317.56C604.581 317.24 604.528 316.653 604.421 315.8C604.315 314.947 604.101 313.613 603.781 311.8C603.355 308.28 603.301 306.2 603.621 305.56C603.941 304.813 604.421 304.493 605.061 304.6C605.595 304.173 606.021 303.747 606.341 303.32C606.768 302.893 607.035 302.36 607.141 301.72C607.248 301.08 607.195 300.227 606.981 299.16C606.875 297.987 606.555 296.493 606.021 294.68C605.488 293.08 605.541 291.48 606.181 289.88C606.821 288.28 607.195 286.68 607.301 285.08L610.661 281.72C612.155 281.72 614.128 281.72 616.581 281.72C619.035 281.613 621.168 281.507 622.981 281.4C626.821 281.08 629.595 280.92 631.301 280.92L632.901 282.04ZM655.636 376.6C655.743 376.067 655.796 375.587 655.796 375.16C655.903 374.627 656.01 374.093 656.116 373.56C656.756 369.08 657.076 366.04 657.076 364.44C657.076 364.12 656.97 363.587 656.756 362.84C656.65 362.093 656.543 361.56 656.436 361.24L657.876 325.56C657.343 324.813 657.236 323.853 657.556 322.68C657.876 321.4 658.356 320.6 658.996 320.28C659.423 318.787 660.01 317.08 660.756 315.16C661.61 313.24 661.93 311.053 661.716 308.6C661.61 307.427 661.716 306.467 662.036 305.72C662.356 304.867 662.623 304.333 662.836 304.12L664.116 302.84C664.97 301.987 665.45 301.24 665.556 300.6C665.663 299.853 665.556 299.16 665.236 298.52C664.916 297.88 664.49 297.4 663.956 297.08C663.53 296.653 663.103 296.333 662.676 296.12C662.356 295.8 662.196 295.587 662.196 295.48C662.41 294.84 662.516 294.307 662.516 293.88C662.516 293.453 662.196 292.973 661.556 292.44L661.876 288.6C662.41 287.853 663.37 287.48 664.756 287.48C666.25 287.373 667.423 287.32 668.276 287.32C668.596 287.32 669.13 287.32 669.876 287.32C670.623 287.213 671.476 287.16 672.436 287.16L675.316 287C675.85 286.893 676.276 286.84 676.596 286.84C677.023 286.84 677.396 286.84 677.716 286.84L679.476 286.04C680.223 285.613 680.81 285.4 681.236 285.4C681.556 285.4 682.143 285.56 682.996 285.88C683.956 286.093 684.97 286.52 686.036 287.16L685.236 302.68L683.636 316.28C683.636 316.707 683.37 317.613 682.836 319C682.303 320.28 681.77 321.347 681.236 322.2C681.023 322.413 680.916 322.84 680.916 323.48C680.916 324.013 680.916 324.653 680.916 325.4C681.023 326.04 681.076 326.68 681.076 327.32C681.183 327.96 681.183 328.44 681.076 328.76L679.956 340.44C679.956 340.653 679.85 340.867 679.636 341.08C679.53 341.187 679.37 341.56 679.156 342.2C679.05 342.733 678.89 343.533 678.676 344.6C678.463 345.667 678.303 347.16 678.196 349.08C677.983 353.133 677.77 355.96 677.556 357.56C677.343 359.16 677.236 360.067 677.236 360.28C677.236 361.347 677.556 362.093 678.196 362.52C678.943 362.947 679.316 363.587 679.316 364.44C678.89 364.867 678.996 365.667 679.636 366.84C680.383 368.013 681.663 368.76 683.476 369.08C685.29 369.4 687.316 369.293 689.556 368.76C691.796 368.12 694.25 367.693 696.916 367.48C697.876 367.48 698.463 367.587 698.676 367.8C698.996 368.013 699.263 368.28 699.476 368.6C699.796 368.813 700.276 369.08 700.916 369.4C701.663 369.613 702.996 369.773 704.916 369.88C705.343 369.88 706.143 369.56 707.316 368.92C708.596 368.28 709.13 367.267 708.916 365.88C709.77 365.88 710.836 365.72 712.116 365.4C713.503 365.08 714.89 364.813 716.276 364.6C717.663 364.387 718.89 364.387 719.956 364.6C721.023 364.707 721.716 365.24 722.036 366.2L722.676 368.6C722.57 368.813 722.516 369.08 722.516 369.4C722.516 369.613 722.463 369.88 722.356 370.2C722.25 370.733 722.09 371.48 721.876 372.44C721.663 373.293 721.45 374.307 721.236 375.48C718.996 375.693 717.77 375.747 717.556 375.64C717.343 375.533 717.13 375.48 716.916 375.48C716.596 375.48 716.063 375.693 715.316 376.12C714.676 376.44 714.143 376.707 713.716 376.92C713.076 377.027 712.01 377.187 710.516 377.4C709.13 377.613 707.37 377.827 705.236 378.04C704.063 378.253 703.05 378.413 702.196 378.52C701.45 378.52 700.81 378.573 700.276 378.68C699.85 378.787 699.316 378.84 698.676 378.84C698.57 378.84 698.196 378.893 697.556 379C696.916 379 696.17 379 695.316 379H690.516C688.383 378.787 686.836 378.627 685.876 378.52C685.023 378.413 684.33 378.413 683.796 378.52C683.37 378.52 682.943 378.68 682.516 379C682.196 379.213 681.45 379.64 680.276 380.28C679.85 380.387 679.05 380.44 677.876 380.44H670.996C670.143 380.333 669.45 380.28 668.916 380.28C668.49 380.173 668.01 380.067 667.476 379.96L661.236 381.88C659.743 381.667 658.57 381.027 657.716 379.96C656.863 378.893 656.17 377.773 655.636 376.6ZM737.396 368.44L755.636 365.72L773.076 360.6L777.236 353.88L775.476 347L771.316 341.88C770.143 341.133 768.916 340.44 767.636 339.8C766.463 339.053 765.236 338.52 763.956 338.2C762.783 337.773 761.556 337.613 760.276 337.72C759.103 337.72 757.93 338.093 756.756 338.84L752.756 341.72L739.476 335.48L734.676 323.16L738.836 302.52L746.196 292.76C746.516 293.507 747.156 293.773 748.116 293.56C749.076 293.347 750.036 292.92 750.996 292.28C751.956 291.64 752.756 290.893 753.396 290.04C754.036 289.08 754.196 288.227 753.876 287.48C755.69 286.947 757.77 286.413 760.116 285.88C762.463 285.24 764.49 284.333 766.196 283.16L786.836 278.84L790.196 278.52L793.076 281.88L790.516 288.76L784.596 290.36L776.916 291.16L765.236 297.08L759.796 304.12C758.09 305.72 757.236 307.48 757.236 309.4C757.343 311.213 757.823 313.187 758.676 315.32C759.85 317.773 760.703 319.373 761.236 320.12C761.876 320.76 762.676 321.347 763.636 321.88L773.076 325.08C774.143 325.933 775.103 326.627 775.956 327.16C776.916 327.587 777.983 327.853 779.156 327.96C780.33 328.067 781.983 328.173 784.116 328.28C786.356 328.387 789.183 328.547 792.596 328.76C793.556 330.573 794.676 332.173 795.956 333.56C797.236 334.84 798.463 336.547 799.636 338.68L802.836 345.88L798.036 361.88L794.196 366.04L786.356 377.4H782.356C780.97 377.4 779.263 377.453 777.236 377.56C775.316 377.56 773.023 377.56 770.356 377.56C767.69 377.56 765.343 377.827 763.316 378.36C761.29 378.893 759.476 379.48 757.876 380.12C756.276 380.653 754.89 381.133 753.716 381.56C752.543 381.987 751.476 382.147 750.516 382.04L744.756 380.28L735.156 381.88L731.796 375L732.756 371L737.396 368.44Z" fill="white"/>
</svg>
